<svg width="18" height="19" viewBox="0 0 18 19" fill="none" xmlns="http://www.w3.org/2000/svg">
<path d="M7.02778 17.875H3.11111C2.00654 17.875 1.11111 16.9796 1.11111 15.875V8.84232C1.11111 8.31188 1.32183 7.80318 1.6969 7.4281L7.58579 1.53921C8.36684 0.758165 9.63317 0.758164 10.4142 1.53921L16.3031 7.4281C16.6782 7.80318 16.8889 8.31188 16.8889 8.84232V15.875C16.8889 16.9796 15.9935 17.875 14.8889 17.875H10.9722M7.02778 17.875V11.9722C7.02778 11.4199 7.4755 10.9722 8.02778 10.9722H9.97223C10.5245 10.9722 10.9722 11.4199 10.9722 11.9722V17.875M7.02778 17.875H10.9722" stroke="#212529" stroke-width="1.5" stroke-linecap="round" stroke-linejoin="round"/>
</svg>
