<svg width="18" height="18" viewBox="0 0 18 18" fill="none" xmlns="http://www.w3.org/2000/svg">
<g id="Group">
<path id="Vector" d="M9 1C4.5816 1 1 4.5816 1 9C1 13.4184 4.5816 17 9 17C13.4184 17 17 13.4184 17 9C17 4.5816 13.4184 1 9 1Z" stroke="black" stroke-width="1.5" stroke-linecap="round" stroke-linejoin="round"/>
<path id="Vector_2" d="M2.81689 14.0768C2.81689 14.0768 4.60009 11.8 9.00009 11.8C13.4001 11.8 15.1841 14.0768 15.1841 14.0768M9.00009 8.99995C9.63661 8.99995 10.2471 8.7471 10.6972 8.29701C11.1472 7.84692 11.4001 7.23647 11.4001 6.59995C11.4001 5.96343 11.1472 5.35298 10.6972 4.9029C10.2471 4.45281 9.63661 4.19995 9.00009 4.19995C8.36358 4.19995 7.75313 4.45281 7.30304 4.9029C6.85295 5.35298 6.60009 5.96343 6.60009 6.59995C6.60009 7.23647 6.85295 7.84692 7.30304 8.29701C7.75313 8.7471 8.36358 8.99995 9.00009 8.99995Z" stroke="black" stroke-width="1.5" stroke-linecap="round" stroke-linejoin="round"/>
</g>
</svg>
