<svg width="18" height="18" viewBox="0 0 18 18" fill="none" xmlns="http://www.w3.org/2000/svg">
<path d="M8.07203 2.31085C8.40793 1.47438 9.59207 1.47438 9.92797 2.31085L11.3523 5.85774C11.4953 6.21394 11.8297 6.45683 12.2126 6.4828L16.0261 6.74137C16.9254 6.80235 17.2913 7.92853 16.5996 8.50648L13.6664 10.9571C13.3719 11.2033 13.2442 11.5963 13.3378 11.9685L14.2703 15.6752C14.4902 16.5494 13.5322 17.2454 12.7688 16.7661L9.53171 14.7338C9.20661 14.5297 8.79339 14.5297 8.46829 14.7338L5.23117 16.7661C4.46776 17.2454 3.50977 16.5494 3.72969 15.6752L4.66218 11.9685C4.75583 11.5963 4.62814 11.2033 4.33357 10.9571L1.40042 8.50647C0.708693 7.92853 1.07461 6.80235 1.97394 6.74137L5.78737 6.4828C6.17035 6.45683 6.50466 6.21394 6.6477 5.85774L8.07203 2.31085Z" stroke="#212529" stroke-width="1.5" stroke-linecap="round" stroke-linejoin="round"/>
</svg>
